<svg xmlns="http://www.w3.org/2000/svg" width="256" height="256" viewBox="0 0 100 100"><rect width="100" height="100" rx="50" fill="#7d6ee7"></rect><path d="M24.27 54.70L24.27 54.70Q24.27 57.25 23.50 59.30Q22.73 61.35 21.20 62.80Q19.68 64.25 17.48 65.05Q15.28 65.85 12.42 65.85L12.42 65.85Q9.58 65.85 7.38 65.05Q5.18 64.25 3.67 62.80Q2.17 61.35 1.40 59.30Q0.63 57.25 0.63 54.70L0.63 54.70L0.63 34.90Q0.88 34.80 1.40 34.67Q1.92 34.55 2.53 34.55L2.53 34.55Q4.68 34.55 4.68 36.40L4.68 36.40L4.68 54.35Q4.68 56.35 5.28 57.85Q5.88 59.35 6.90 60.37Q7.93 61.40 9.35 61.90Q10.78 62.40 12.42 62.40L12.42 62.40Q14.08 62.40 15.50 61.90Q16.93 61.40 17.95 60.37Q18.98 59.35 19.58 57.85Q20.18 56.35 20.18 54.35L20.18 54.35L20.18 34.90Q20.43 34.80 20.95 34.67Q21.48 34.55 22.08 34.55L22.08 34.55Q24.27 34.55 24.27 36.40L24.27 36.40L24.27 54.70ZM50.43 57.30L50.43 57.30Q50.08 57.55 49.50 57.75Q48.93 57.95 48.23 57.95L48.23 57.95Q47.43 57.95 46.80 57.70Q46.18 57.45 45.93 56.90L45.93 56.90Q43.23 51.30 41.28 46.65Q39.33 42.00 38.13 38.95L38.13 38.95L37.93 38.95Q37.78 42.70 37.60 45.92Q37.43 49.15 37.23 52.22Q37.03 55.30 36.83 58.45Q36.63 61.60 36.43 65.20L36.43 65.20Q36.13 65.30 35.65 65.40Q35.18 65.50 34.63 65.50L34.63 65.50Q33.53 65.50 33.08 65.05Q32.63 64.60 32.63 63.75L32.63 63.75Q32.63 63.25 32.70 61.60Q32.78 59.95 32.93 57.60Q33.08 55.25 33.25 52.40Q33.43 49.55 33.65 46.60Q33.88 43.65 34.10 40.80Q34.33 37.95 34.53 35.60L34.53 35.60Q34.93 35.25 35.68 34.95Q36.43 34.65 37.38 34.65L37.38 34.65Q39.68 34.65 40.58 36.50L40.58 36.50Q41.53 38.45 42.50 40.62Q43.48 42.80 44.45 45.05Q45.43 47.30 46.35 49.50Q47.28 51.70 48.13 53.70L48.13 53.70L48.33 53.70Q49.43 51.05 50.53 48.47Q51.63 45.90 52.68 43.50Q53.73 41.10 54.68 39.00Q55.63 36.90 56.38 35.15L56.38 35.15Q56.83 34.90 57.53 34.77Q58.23 34.65 58.83 34.65L58.83 34.65Q61.18 34.65 61.53 36.25L61.53 36.25Q61.73 37.15 61.98 39.22Q62.23 41.30 62.48 44.00Q62.73 46.70 62.95 49.80Q63.18 52.90 63.38 55.77Q63.58 58.65 63.73 61.07Q63.88 63.50 63.98 64.90L63.98 64.90Q63.08 65.50 61.88 65.50L61.88 65.50Q61.13 65.50 60.55 65.12Q59.98 64.75 59.88 63.75L59.88 63.75Q59.63 60.10 59.43 56.50Q59.23 52.90 59.05 49.65Q58.88 46.40 58.73 43.67Q58.58 40.95 58.48 39.05L58.48 39.05L58.28 39.05Q57.73 40.45 57.00 42.20Q56.28 43.95 55.30 46.15Q54.33 48.35 53.13 51.12Q51.93 53.90 50.43 57.30ZM99.38 50.00L99.38 50.00Q99.38 53.90 98.28 56.87Q97.18 59.85 95.23 61.82Q93.28 63.80 90.63 64.82Q87.98 65.85 84.88 65.85L84.88 65.85Q81.78 65.85 79.13 64.82Q76.48 63.80 74.53 61.82Q72.58 59.85 71.48 56.87Q70.38 53.90 70.38 50.00L70.38 50.00Q70.38 46.10 71.50 43.15Q72.63 40.20 74.58 38.20Q76.53 36.20 79.18 35.17Q81.83 34.15 84.88 34.15L84.88 34.15Q87.93 34.15 90.58 35.17Q93.23 36.20 95.18 38.20Q97.13 40.20 98.25 43.15Q99.38 46.10 99.38 50.00ZM95.23 50.00L95.23 50.00Q95.23 44.00 92.40 40.80Q89.58 37.60 84.88 37.60L84.88 37.60Q82.53 37.60 80.63 38.42Q78.73 39.25 77.38 40.82Q76.03 42.40 75.30 44.70Q74.58 47.00 74.58 50.00L74.58 50.00Q74.58 56.00 77.38 59.20Q80.18 62.40 84.88 62.40L84.88 62.40Q89.63 62.40 92.43 59.20Q95.23 56.00 95.23 50.00Z" fill="#fff"></path></svg>