<svg xmlns="http://www.w3.org/2000/svg" width="256" height="256" viewBox="0 0 100 100"><path fill="#fff" d="M21.83 53.16L21.83 53.16Q21.83 54.90 21.30 56.29Q20.78 57.68 19.74 58.67Q18.70 59.66 17.21 60.20Q15.71 60.74 13.77 60.74L13.77 60.74Q11.83 60.74 10.34 60.20Q8.84 59.66 7.82 58.67Q6.80 57.68 6.28 56.29Q5.75 54.90 5.75 53.16L5.75 53.16L5.75 39.70Q5.92 39.63 6.28 39.55Q6.63 39.46 7.04 39.46L7.04 39.46Q8.50 39.46 8.50 40.72L8.50 40.72L8.50 52.92Q8.50 54.28 8.91 55.30Q9.32 56.32 10.02 57.02Q10.71 57.72 11.68 58.06Q12.65 58.40 13.77 58.40L13.77 58.40Q14.89 58.40 15.86 58.06Q16.83 57.72 17.53 57.02Q18.23 56.32 18.63 55.30Q19.04 54.28 19.04 52.92L19.04 52.92L19.04 39.70Q19.21 39.63 19.57 39.55Q19.93 39.46 20.33 39.46L20.33 39.46Q21.83 39.46 21.83 40.72L21.83 40.72L21.83 53.16ZM26.69 39.63L38.93 39.63Q39.71 40.07 39.71 40.99L39.71 40.99Q39.71 41.67 39.34 42.42L39.34 42.42L30.81 60.44Q30.60 60.47 30.42 60.47Q30.23 60.47 30.02 60.47L30.02 60.47Q29.34 60.47 28.89 60.15Q28.43 59.83 28.43 59.25L28.43 59.25Q28.43 58.84 28.58 58.45Q28.73 58.06 29.00 57.55L29.00 57.55L36.69 41.94L25.94 41.94Q25.84 41.77 25.74 41.50Q25.64 41.23 25.64 40.85L25.64 40.85Q25.64 40.28 25.91 39.95Q26.18 39.63 26.69 39.63L26.69 39.63ZM49.64 52.92L46.21 52.92L46.21 60.23Q46.00 60.30 45.66 60.39Q45.32 60.47 44.92 60.47L44.92 60.47Q43.42 60.47 43.42 59.21L43.42 59.21L43.42 41.13Q43.42 40.58 43.69 40.29Q43.96 40.00 44.54 39.83L44.54 39.83Q45.53 39.53 46.94 39.39Q48.35 39.26 49.68 39.26L49.68 39.26Q53.99 39.26 55.98 41.08Q57.97 42.89 57.97 45.99L57.97 45.99Q57.97 49.15 55.93 51.04Q53.89 52.92 49.64 52.92L49.64 52.92ZM46.17 50.61L49.47 50.61Q52.19 50.61 53.69 49.49Q55.18 48.37 55.18 46.02L55.18 46.02Q55.18 43.71 53.74 42.64Q52.29 41.57 49.61 41.57L49.61 41.57Q48.69 41.57 47.79 41.65Q46.89 41.74 46.17 41.87L46.17 41.87L46.17 50.61ZM60.76 52.72L70.66 39.60Q70.96 39.53 71.35 39.48Q71.74 39.43 72.05 39.43L72.05 39.43Q72.76 39.43 73.34 39.77Q73.92 40.11 73.92 41.09L73.92 41.09L73.92 52.99L77.32 52.99Q77.42 53.16 77.52 53.45Q77.63 53.74 77.63 54.11L77.63 54.11Q77.63 55.27 76.57 55.27L76.57 55.27L73.92 55.27L73.92 60.37Q73.75 60.44 73.43 60.51Q73.10 60.57 72.73 60.57L72.73 60.57Q71.27 60.57 71.27 59.38L71.27 59.38L71.27 55.27L61.44 55.27Q61.10 55.10 60.85 54.68Q60.59 54.25 60.59 53.67L60.59 53.67Q60.59 53.37 60.64 53.15Q60.69 52.92 60.76 52.72L60.76 52.72ZM71.30 52.99L71.37 42.28L71.30 42.28L63.75 52.99L71.30 52.99ZM82.83 60.30L82.83 60.30Q82.18 60.30 81.76 59.89Q81.33 59.49 81.33 58.81L81.33 58.81L81.33 39.70Q81.50 39.63 81.86 39.55Q82.22 39.46 82.62 39.46L82.62 39.46Q84.12 39.46 84.12 40.72L84.12 40.72L84.12 57.92L93.88 57.92Q94.25 58.30 94.25 59.04L94.25 59.04Q94.25 59.62 93.95 59.96Q93.64 60.30 93.13 60.30L93.13 60.30L82.83 60.30Z"></path></svg>